<?xml version="1.0" encoding="UTF-8" standalone="no"?> <svg xmlns="http://www.w3.org/2000/svg" xmlns:xlink="http://www.w3.org/1999/xlink" width="589px" height="100px" viewBox="0 0 589 100"><!-- Generator: Sketch 3.6.1 (26313) - http://www.bohemiancoding.com/sketch --><title>logo</title><desc>Created with Sketch.</desc><defs><path id="path-1" d="M37.53,100 L0,100 L0,0.04 L75.06,0.04 L75.06,100 L37.53,100 L37.53,100 Z"></path></defs><g id="Page-1" stroke="none" stroke-width="1" fill="none" fill-rule="evenodd"><g id="logo"><path d="M85.818,31.288 L94.255,31.288 L94.255,24.315 L85.818,24.315 L85.818,31.288 Z M85.818,72.091 L94.255,72.091 L94.255,35.564 L85.818,35.564 L85.818,72.091 Z" id="Fill-1" fill="#55595A"></path><path d="M160.421,59.817 C155.666,68.161 146.436,72.331 132.729,72.331 C112.831,72.331 102.88,64.302 102.88,48.236 C102.88,32.129 112.831,24.076 132.729,24.076 C146.416,24.076 155.622,28.262 160.354,36.63 L152.688,40.328 C150.712,37.152 147.769,34.998 143.858,33.865 C141.083,33.021 137.373,32.598 132.729,32.598 C125.865,32.598 120.854,33.479 117.702,35.233 C113.501,37.612 111.402,41.949 111.402,48.238 C111.402,54.556 113.523,58.877 117.767,61.214 C120.899,63.014 125.888,63.914 132.729,63.914 C137.373,63.914 141.083,63.494 143.858,62.65 C147.769,61.517 150.712,59.36 152.688,56.186 L160.421,59.817" id="Fill-2" fill="#55595A"></path><path d="M217.913,70.778 C208.965,70.778 202.204,69.245 197.626,66.184 C192.207,62.545 189.496,56.564 189.496,48.238 C189.496,39.89 192.207,33.898 197.626,30.26 C202.179,27.221 208.942,25.699 217.913,25.699 C230.564,25.699 238.964,28.902 243.104,35.307 L239.296,37.128 C237.142,34.084 233.859,32.014 229.445,30.915 C226.514,30.183 222.672,29.816 217.913,29.816 C210.268,29.816 204.617,30.892 200.956,33.039 C196.037,35.9 193.578,40.967 193.578,48.238 C193.578,55.512 196.037,60.59 200.956,63.474 C204.686,65.622 210.337,66.696 217.913,66.696 C222.831,66.696 226.675,66.341 229.445,65.634 C233.859,64.51 237.142,62.429 239.296,59.387 L243.138,61.206 C238.974,67.587 230.564,70.778 217.913,70.778" id="Fill-3" fill="#55595A"></path><path d="M277.402,70.778 C268.462,70.778 261.7,69.245 257.126,66.184 C251.705,62.545 248.995,56.564 248.995,48.238 C248.995,39.89 251.705,33.898 257.126,30.26 C261.679,27.221 268.437,25.699 277.402,25.699 C286.327,25.699 293.071,27.242 297.645,30.333 C303.066,33.966 305.779,39.936 305.779,48.238 C305.779,56.564 303.066,62.545 297.645,66.184 C293.071,69.245 286.327,70.778 277.402,70.778 L277.402,70.778 Z M277.402,29.816 C269.763,29.816 264.115,30.892 260.454,33.039 C255.535,35.9 253.076,40.967 253.076,48.238 C253.076,55.512 255.535,60.59 260.454,63.474 C264.183,65.622 269.833,66.696 277.402,66.696 C285.021,66.696 290.659,65.622 294.317,63.474 C299.237,60.59 301.697,55.512 301.697,48.238 C301.697,40.99 299.237,35.924 294.317,33.039 C290.659,30.892 285.021,29.816 277.402,29.816 L277.402,29.816 Z" id="Fill-4" fill="#55595A"></path><path d="M319.095,31.65 L319.095,69.906 L315.136,69.906 L315.136,26.572 L319.593,26.572 L360.207,64.875 L360.207,26.572 L364.132,26.572 L364.132,69.906 L359.675,69.906 L319.095,31.65" id="Fill-5" fill="#55595A"></path><path d="M422.308,68.86 C418.493,69.843 412.637,70.339 404.74,70.339 C401.175,70.339 398.083,70.251 395.471,70.07 C392.856,69.892 390.642,69.621 388.824,69.265 C382.856,68.033 379.123,65.676 377.617,62.202 L381.723,61.124 C384.078,64.645 391.35,66.406 403.531,66.406 C410.171,66.406 414.96,66.174 417.901,65.704 C425.015,64.578 428.568,62.114 428.568,58.3 C428.568,54.373 424.876,51.885 417.491,50.828 C416.191,50.652 414.35,50.511 411.97,50.408 C409.594,50.307 406.641,50.258 403.116,50.258 C395.891,50.258 390.437,49.766 386.759,48.777 C380.157,47.006 376.859,43.484 376.859,38.217 C376.859,32.968 380.291,29.445 387.158,27.652 C390.881,26.645 396.739,26.139 404.724,26.139 C408.309,26.139 411.439,26.234 414.096,26.425 C416.757,26.614 418.97,26.9 420.743,27.28 C426.753,28.582 430.488,30.992 431.948,34.514 L427.876,35.559 C426.484,33.246 423.186,31.663 417.983,30.812 C414.979,30.342 411.04,30.104 406.173,30.104 C399.415,30.104 394.593,30.342 391.699,30.812 C384.497,31.867 380.896,34.334 380.896,38.214 C380.896,42.115 384.497,44.586 391.704,45.616 C393.049,45.841 394.884,46.004 397.207,46.104 C399.529,46.203 402.388,46.256 405.772,46.256 C413.27,46.256 418.822,46.715 422.439,47.635 C429.217,49.431 432.604,52.982 432.604,58.297 C432.604,63.567 429.175,67.087 422.308,68.86" id="Fill-6" fill="#55595A"></path><path d="M468.403,70.336 C459.918,70.336 453.796,68.804 450.044,65.738 C445.802,62.362 443.68,56.6 443.68,48.451 L443.68,26.566 L447.644,26.566 L447.644,48.451 C447.644,55.578 449.442,60.455 453.043,63.075 C456.041,65.271 461.164,66.372 468.403,66.372 C475.646,66.372 480.767,65.271 483.768,63.075 C487.368,60.409 489.167,55.536 489.167,48.451 L489.167,26.566 L493.129,26.566 L493.129,48.451 C493.129,56.6 491.007,62.362 486.765,65.738 C482.99,68.804 476.868,70.336 468.403,70.336" id="Fill-7" fill="#55595A"></path><path d="M510.286,26.572 L506.33,26.572 L506.33,69.906 L549.682,69.906 L549.682,65.981 L510.286,65.981 L510.286,26.572" id="Fill-8" fill="#55595A"></path><path d="M539.838,30.531 L562.373,30.531 L562.373,69.906 L566.298,69.906 L566.298,30.531 L588.79,30.531 L588.79,26.572 L539.838,26.572 L539.838,30.531" id="Fill-9" fill="#55595A"></path><mask id="mask-2" fill="white"><use xlink:href="#path-1"></use></mask><g id="Clip-11"></g><path d="M72.303,24.251 C44.983,49.242 45.63,73.792 75.06,100 L58.384,100 C21.809,78.228 21.418,49.748 41.483,24.297 L72.303,24.251" id="Fill-10" fill="#99CC33" mask="url(#mask-2)"></path><path d="M6.732,52.487 C17.191,31.041 13.931,9.032 0,0 L25.451,0.012 C39.338,16.73 28.965,39.191 19.611,52.497 L6.732,52.487" id="Fill-12" fill="#99CC33" mask="url(#mask-2)"></path></g></g></svg> 